<svg viewBox="0 0 25 25" fill="none" xmlns="http://www.w3.org/2000/svg">
<path d="M13.1615 5.0001C13.9567 5.0081 14.8285 5.4484 15.0395 6.3614C15.1444 6.2661 15.2594 6.1844 15.3836 6.1173C15.7851 5.9004 16.238 5.8598 16.6527 5.9483C17.4722 6.1235 18.1848 6.8108 18.2523 7.7618C18.2541 7.7848 18.2558 7.8081 18.2575 7.8311C18.5884 7.6051 19.0068 7.5263 19.4859 7.6153C19.9167 7.6955 20.4585 7.9921 20.7643 8.63C21.0658 9.2588 21.1073 10.1532 20.7163 11.3917C20.3625 12.5127 19.9635 13.4489 19.6037 14.292C19.4273 14.7054 19.2599 15.0971 19.1126 15.4766C18.6586 16.6464 18.3357 17.8214 18.3357 19.5C18.3357 19.7761 18.0967 20 17.8018 20H10.3272C10.0326 19.9997 9.7933 19.776 9.7933 19.5C9.7933 18.4632 9.0558 17.49 8.0435 16.46C7.7989 16.2111 7.5462 15.9654 7.2917 15.7188L7.2844 15.7129C7.0292 15.4657 6.7726 15.2155 6.5305 14.9678C6.0526 14.4788 5.6016 13.9645 5.3146 13.4288C5.0599 12.9714 4.8802 12.3128 5.0967 11.7628L5.0998 11.7539C5.2455 11.4041 5.4739 11.0922 5.8193 10.8848C6.1675 10.6757 6.5784 10.6067 7.0206 10.6485C7.6787 10.7081 8.1534 10.9815 8.5534 11.3126C8.3987 10.8987 8.2153 10.4885 8.0237 10.0616C8.0004 10.0096 7.9763 9.9569 7.9528 9.9044C7.6836 9.303 7.4066 8.668 7.2229 7.9971L7.2208 7.9874C7.065 7.3674 7.2674 6.7396 7.6963 6.3194C8.1376 5.8871 8.8182 5.6797 9.543 5.9171C10.2485 6.1492 10.7487 6.6738 11.1082 7.2667C11.1311 7.015 11.1627 6.7583 11.2063 6.4933L11.2073 6.4903C11.3824 5.4662 12.3183 4.9918 13.1615 5.0001ZM13.15 6.0001C12.7022 5.9958 12.334 6.2277 12.2615 6.6476C12.0594 7.8794 12.1241 8.8853 12.2157 10.3048C12.2324 10.564 12.2508 10.8372 12.2678 11.128C12.2833 11.392 12.0759 11.6219 11.7954 11.6524C11.5152 11.6826 11.2578 11.5033 11.2083 11.2432L11.126 10.8067C11.0154 10.165 10.8442 9.2546 10.518 8.4473C10.181 7.6131 9.7386 7.0412 9.1895 6.8604C8.8859 6.7612 8.6391 6.8432 8.468 7.0108C8.2853 7.19 8.1899 7.4708 8.2594 7.754C8.4216 8.3442 8.6691 8.9164 8.9382 9.5177C8.9622 9.5712 8.9859 9.6256 9.0102 9.6798C9.2549 10.2247 9.5122 10.7971 9.7047 11.3907V11.3926C9.8596 11.876 9.961 12.2594 10.0404 12.5616C10.0719 12.6813 10.1002 12.7886 10.127 12.8838C10.1866 13.0962 10.0907 13.3199 9.8913 13.4356C9.6919 13.5513 9.435 13.5324 9.2584 13.3877C8.9791 13.159 8.7417 12.9276 8.5316 12.7178C8.4869 12.6732 8.4438 12.6297 8.4023 12.5879C8.2431 12.428 8.1039 12.2879 7.9612 12.1602C7.6159 11.8513 7.3209 11.6801 6.9173 11.6436H6.9142C6.6559 11.619 6.499 11.6648 6.396 11.7267C6.2907 11.7898 6.1843 11.9042 6.0967 12.1123C6.0313 12.2849 6.0728 12.6297 6.2625 12.9688L6.2667 12.9776C6.484 13.3846 6.8516 13.816 7.3178 14.293C7.5484 14.529 7.796 14.7687 8.0529 15.0176L8.0633 15.0283C8.3151 15.2722 8.5762 15.5243 8.8298 15.7822C9.7178 16.6858 10.6232 17.7538 10.8215 19H17.2773C17.336 17.4354 17.6696 16.2681 18.1094 15.1348C18.2779 14.7006 18.456 14.2843 18.6381 13.8584C18.9874 13.0416 19.351 12.1894 19.6923 11.1085C20.043 9.9976 19.9478 9.3706 19.7893 9.0401C19.6353 8.7188 19.3946 8.6176 19.2774 8.5958C19.0176 8.5475 18.9105 8.6093 18.8372 8.6788C18.7276 8.783 18.6241 8.983 18.5411 9.3028C18.4605 9.6136 18.4162 9.9655 18.3711 10.3253L18.368 10.3526C18.3281 10.6721 18.2836 11.0301 18.1939 11.3008C18.1639 11.4068 18.1031 11.5039 18.0135 11.5753C17.9497 11.626 17.8131 11.7085 17.6214 11.6934C17.3135 11.6691 17.1307 11.421 17.124 11.1476C17.1145 10.7544 17.1496 10.3583 17.1698 9.9659C17.2077 9.2364 17.2436 8.5335 17.1876 7.8341V7.8292C17.1528 7.33 16.787 7.0024 16.4149 6.9229C16.2333 6.8842 16.0609 6.9061 15.9175 6.9835C15.7769 7.0594 15.6185 7.2131 15.514 7.5138L15.5129 7.5177C15.4691 7.6409 15.424 7.8784 15.3846 8.213C15.3467 8.5358 15.3183 8.9129 15.295 9.294C15.2751 9.6201 15.2583 9.9583 15.2439 10.2618C15.2257 10.6452 15.2102 10.9737 15.1928 11.1534C15.1858 11.2246 15.1637 11.2947 15.1271 11.3575C15.1042 11.3968 14.9843 11.6093 14.6745 11.6182C14.3631 11.6271 14.214 11.401 14.1896 11.3594C14.1249 11.2493 14.1189 11.1184 14.1156 10.9932C14.1126 10.881 14.1106 10.7182 14.1093 10.5479C14.1068 10.2065 14.1073 9.8203 14.1073 9.71C14.1073 8.6662 14.1056 7.6536 14.0082 6.6437C13.949 6.2413 13.5975 6.0046 13.15 6.0001Z" fill="currentColor"/>
</svg>
