<svg viewBox="0 0 25 25" fill="none" xmlns="http://www.w3.org/2000/svg">
<path d="M17 7C17.5523 7 18 7.4477 18 8V17C18 17.5523 17.5523 18 17 18H8C7.4477 18 7 17.5523 7 17V8C7 7.4477 7.4477 7 8 7H17ZM8 17H17V8H8V17ZM10.9141 10.3789C11.1093 10.1836 11.4258 10.1836 11.6211 10.3789C11.8163 10.5742 11.8163 10.8907 11.6211 11.0859L10.207 12.5L11.6211 13.9141C11.8164 14.1093 11.8164 14.4258 11.6211 14.6211C11.4258 14.8163 11.1093 14.8163 10.9141 14.6211L9.294 13.001C9.0176 12.7244 9.0176 12.2756 9.294 11.999L10.9141 10.3789ZM13.374 10.3789C13.5693 10.1837 13.8858 10.1837 14.0811 10.3789L15.7021 11.999C15.9785 12.2756 15.9785 12.7244 15.7021 13.001L14.0811 14.6211C13.8858 14.8164 13.5693 14.8164 13.374 14.6211C13.179 14.4258 13.1788 14.1092 13.374 13.9141L14.7881 12.5L13.374 11.0859C13.1789 10.8907 13.179 10.5742 13.374 10.3789Z" fill="currentColor" />
</svg>
